# xmcd
#
# Track frame offsets:
#   150
#   16052
#   31277
#   46360
#   64011
#   81816
#   98744
#   112425
#   127776
#   143148
#   165706
#   185871
#   201462
#   217660
#   244074
#
# Disc length: 3463 seconds
#
# Revision: 0
# Processed by: cddbd v1.5.1PL2 Copyright (c) Steve Scherf et al.
# Submitted via: Media_Universe 3.0
#
DISCID=d00d850f
DTITLE=Varios  - disco 3 cd3
DYEAR=2003
DGENRE=Dance
TTITLE0=Jermaine Jackson/Let's Get Serious
TTITLE1=Edwin Starr/War
TTITLE2=Johnny Bristol/Hang on in There Baby
TTITLE3=Peaches and Herb/Shake Your Groove Thing
TTITLE4=Barry White/Never Gonna Give You Up
TTITLE5=Diana Ross/Love Hangover
TTITLE6=Al Downing/I'll be Holding On
TTITLE7=Stephanie Mills/Never Knew Love Like This Before
TTITLE8=The Stylistics/Funky Weekend
TTITLE9=Cashflow/Party Freak
TTITLE10=Atlantic Starr/Stand Up
TTITLE11=Gwen Guthrie/Ain't Nothin' Goin on But The Rent
TTITLE12=Junior/Mama Used To Say
TTITLE13=L.A. Mix/Check This Out
TTITLE14=Eddie Kendricks/Keep on Truckin'
EXTD=
EXTT0=
EXTT1=
EXTT2=
EXTT3=
EXTT4=
EXTT5=
EXTT6=
EXTT7=
EXTT8=
EXTT9=
EXTT10=
EXTT11=
EXTT12=
EXTT13=
EXTT14=
PLAYORDER=
